<?xml version="1.0" standalone="no"?>
<!DOCTYPE svg PUBLIC "-//W3C//DTD SVG 20010904//EN"
 "http://www.w3.org/TR/2001/REC-SVG-20010904/DTD/svg10.dtd">
<svg version="1.0" xmlns="http://www.w3.org/2000/svg"
 width="500.000000pt" height="500.000000pt" viewBox="0 0 500.000000 500.000000"
 preserveAspectRatio="xMidYMid meet">

<g transform="translate(0.000000,500.000000) scale(0.100000,-0.100000)"
fill="#000000" stroke="none">
<path d="M0 2500 l0 -2500 2500 0 2500 0 0 2500 0 2500 -2500 0 -2500 0 0
-2500z m1371 514 c183 -54 332 -207 374 -385 70 -298 -114 -592 -410 -654 -88
-18 -132 -18 -220 0 -148 31 -292 139 -362 271 -64 121 -79 286 -39 420 32
103 136 234 232 290 122 72 296 96 425 58z m2763 -387 c38 -27 -2 -95 -41 -71
-25 16 -29 55 -7 71 10 7 21 13 24 13 3 0 14 -6 24 -13z m-2072 -19 c79 -27
127 -92 128 -173 1 -137 -77 -195 -262 -195 l-88 0 0 188 c0 104 3 192 8 196
9 11 172 -2 214 -16z m1555 -4 c32 -24 73 -80 73 -100 0 -9 -12 -14 -34 -14
-26 0 -36 5 -41 20 -10 31 -49 52 -98 52 -93 0 -133 -48 -125 -148 7 -80 38
-109 117 -109 49 0 64 4 85 24 14 14 26 30 26 38 0 9 13 13 40 13 l40 0 -15
-37 c-34 -83 -118 -124 -213 -105 -100 21 -151 85 -152 190 0 131 78 206 207
199 44 -2 71 -9 90 -23z m-1177 -100 c35 -21 60 -64 60 -103 l0 -31 -100 0
c-92 0 -100 -2 -100 -19 0 -23 45 -61 72 -61 10 0 30 11 44 25 25 26 84 35 84
14 0 -53 -89 -107 -154 -95 -124 23 -156 212 -47 271 35 19 107 19 141 -1z
m180 -5 l0 -20 26 20 c38 30 87 28 112 -4 l20 -26 28 26 c26 24 65 32 99 19
30 -12 46 -63 52 -170 l6 -104 -31 0 -32 0 -1 73 c-2 105 -9 130 -41 141 -22
8 -32 6 -48 -9 -17 -16 -20 -30 -20 -112 l0 -93 -30 0 -30 0 0 83 c0 95 -14
131 -52 135 -43 5 -58 -28 -58 -130 l0 -88 -35 0 -35 0 0 140 0 140 35 0 c29
0 35 -4 35 -21z m597 1 c40 -24 63 -67 63 -120 0 -94 -49 -144 -140 -144 -93
0 -140 48 -140 142 0 55 29 108 70 129 38 19 110 16 147 -7z m728 6 c82 -34
97 -179 25 -240 -87 -73 -219 -24 -235 87 -9 57 17 123 59 148 37 23 103 25
151 5z m195 -126 l0 -140 -35 0 -35 0 0 140 0 140 35 0 35 0 0 -140z m130 114
l0 -26 31 26 c41 35 97 35 136 2 27 -24 28 -27 31 -140 l4 -116 -36 0 -36 0 0
92 c0 100 -12 128 -57 128 -48 0 -63 -31 -63 -130 l0 -90 -40 0 -40 0 0 140 0
140 35 0 c31 0 35 -3 35 -26z"/>
<path d="M1134 2920 c-67 -14 -158 -65 -213 -121 -116 -117 -153 -280 -102
-447 28 -93 123 -194 231 -246 61 -29 72 -31 176 -31 107 0 112 1 186 38 131
64 218 182 237 319 42 301 -218 547 -515 488z m267 -57 c252 -124 308 -453
111 -650 -246 -246 -670 -87 -690 259 -8 130 30 229 120 314 95 90 162 115
299 111 84 -2 103 -6 160 -34z"/>
<path d="M1198 2790 c-1 -5 -23 -20 -48 -32 -34 -17 -51 -35 -68 -70 -41 -82
-10 -163 79 -209 l39 -19 0 -86 c0 -94 -9 -103 -45 -46 -23 36 -75 46 -75 14
0 -29 47 -88 84 -106 20 -9 36 -23 36 -31 0 -23 47 -18 60 5 6 11 17 20 25 20
8 0 30 14 50 31 82 73 62 205 -40 253 l-35 17 0 84 c0 47 2 85 5 85 11 0 45
-46 45 -62 0 -13 8 -18 30 -18 25 0 30 4 30 24 0 31 -38 86 -77 111 -18 11
-32 26 -33 33 0 14 -57 17 -62 2z m2 -165 c0 -63 -3 -85 -13 -85 -43 0 -73 67
-52 117 12 28 38 52 58 53 4 0 7 -38 7 -85z m99 -189 c32 -34 32 -88 1 -121
-13 -14 -27 -25 -32 -25 -4 0 -8 38 -8 85 0 47 4 85 8 85 5 0 19 -11 31 -24z"/>
<path d="M1910 2431 l0 -131 54 0 c109 0 146 34 146 134 0 47 -4 61 -29 88
-26 30 -35 33 -100 36 l-71 4 0 -131z"/>
<path d="M2316 2438 c-9 -12 -16 -26 -16 -30 0 -5 29 -8 65 -8 67 0 74 5 55
41 -16 28 -84 27 -104 -3z"/>
<path d="M3096 2449 c-21 -17 -26 -29 -26 -68 0 -64 17 -86 70 -86 53 0 70 22
70 86 0 39 -5 51 -26 68 -15 12 -34 21 -44 21 -10 0 -29 -9 -44 -21z"/>
<path d="M3842 2460 c-47 -19 -54 -117 -11 -152 28 -23 61 -23 90 1 20 16 24
29 24 70 0 31 -6 56 -15 65 -20 20 -60 27 -88 16z"/>
</g>
</svg>
